# xmcd
#
# Track frame offsets:
#  150
#  16768
#  34483
#
# Disc length: 836 seconds
#
# Revision: 0
# Processed by: cddbd v1.5.1PL2 Copyright (c) Steve Scherf et al.
# Submitted via: Collectorz.com_Music_Collector 6.9
#
DISCID=1b034203
DTITLE=Heinz Rudolf Kunze - Held der Arbeit
DYEAR=1992
DGENRE=Rock
TTITLE0=Held der Arbeit
TTITLE1=Der einzige ehrliche Mensch auf der Welt
TTITLE2=Held der Arbeit (Margot Mix)
EXTD=
EXTT0=
EXTT1=
EXTT2=
PLAYORDER=
